<?xml version="1.0" standalone="no"?>
<!DOCTYPE svg PUBLIC "-//W3C//DTD SVG 20010904//EN"
 "http://www.w3.org/TR/2001/REC-SVG-20010904/DTD/svg10.dtd">
<svg version="1.0" xmlns="http://www.w3.org/2000/svg"
 width="300.000000pt" height="273.000000pt" viewBox="0 0 300.000000 273.000000"
 preserveAspectRatio="xMidYMid meet">

<g transform="translate(0.000000,273.000000) scale(0.100000,-0.100000)"
fill="#000000" stroke="none">
<path d="M280 1373 l0 -1038 24 25 c12 14 149 167 303 340 154 173 345 388
424 477 79 88 284 319 454 512 l310 350 498 0 c273 1 497 3 497 6 0 3 -57 86
-127 185 l-127 180 -478 0 -478 0 -38 -42 c-22 -24 -98 -110 -169 -193 -392
-452 -646 -740 -654 -743 -5 -2 -9 192 -9 487 l0 491 -215 0 -215 0 0 -1037z"/>
<path d="M1810 1325 l0 -205 278 -2 277 -3 3 -252 2 -253 -278 0 c-207 0 -282
3 -294 13 -9 6 -132 143 -273 302 -142 160 -260 291 -264 292 -3 1 -66 -66
-138 -149 -142 -161 -140 -156 -90 -209 31 -32 300 -339 437 -497 l105 -122
515 0 515 0 98 140 97 139 0 506 0 505 -495 0 -495 0 0 -205z"/>
<path d="M702 558 l3 -83 78 -3 77 -3 0 86 0 85 -80 0 -81 0 3 -82z"/>
<path d="M940 635 c-1 -3 -1 -40 -2 -82 l0 -78 76 -3 76 -3 0 86 0 85 -75 0
c-41 0 -75 -2 -75 -5z"/>
<path d="M700 325 l0 -85 80 0 80 0 0 85 0 85 -80 0 -80 0 0 -85z"/>
<path d="M940 405 c-1 -3 -1 -40 -2 -82 l0 -78 76 -3 76 -3 0 86 0 85 -75 0
c-41 0 -75 -2 -75 -5z"/>
</g>
</svg>
